<mxfile host="Electron" agent="Mozilla/5.0 (X11; Linux x86_64) AppleWebKit/537.36 (KHTML, like Gecko) draw.io/27.0.9 Chrome/134.0.6998.205 Electron/35.4.0 Safari/537.36" version="27.0.9">
  <diagram name="Page-1" id="uXslXqzxeof80ooJVnR5">
    <mxGraphModel dx="1330" dy="1548" grid="1" gridSize="10" guides="1" tooltips="1" connect="1" arrows="1" fold="1" page="1" pageScale="1" pageWidth="827" pageHeight="1169" math="1" shadow="0">
      <root>
        <mxCell id="0" />
        <mxCell id="1" parent="0" />
        <mxCell id="y_eT4wmRkjMdvx0cKuVC-12" value="+" style="ellipse;whiteSpace=wrap;html=1;aspect=fixed;" parent="1" vertex="1">
          <mxGeometry x="121" y="8" width="14" height="14" as="geometry" />
        </mxCell>
        <mxCell id="y_eT4wmRkjMdvx0cKuVC-13" value="" style="endArrow=classic;html=1;rounded=0;entryX=0;entryY=0.5;entryDx=0;entryDy=0;exitX=0.5;exitY=0;exitDx=0;exitDy=0;" parent="1" source="yURfG57xcYRF41rsmX7A-30" target="y_eT4wmRkjMdvx0cKuVC-12" edge="1">
          <mxGeometry width="50" height="50" relative="1" as="geometry">
            <mxPoint x="91" y="17" as="sourcePoint" />
            <mxPoint x="158" y="-3" as="targetPoint" />
            <Array as="points">
              <mxPoint x="55" y="15" />
            </Array>
          </mxGeometry>
        </mxCell>
        <mxCell id="y_eT4wmRkjMdvx0cKuVC-14" value="" style="endArrow=classic;html=1;rounded=0;entryX=1;entryY=0.5;entryDx=0;entryDy=0;exitX=0.5;exitY=0;exitDx=0;exitDy=0;" parent="1" source="yURfG57xcYRF41rsmX7A-33" target="y_eT4wmRkjMdvx0cKuVC-12" edge="1">
          <mxGeometry width="50" height="50" relative="1" as="geometry">
            <mxPoint x="165" y="17" as="sourcePoint" />
            <mxPoint x="141" y="7" as="targetPoint" />
            <Array as="points">
              <mxPoint x="206" y="15" />
            </Array>
          </mxGeometry>
        </mxCell>
        <mxCell id="y_eT4wmRkjMdvx0cKuVC-16" value="" style="endArrow=classic;html=1;rounded=0;" parent="1" edge="1">
          <mxGeometry width="50" height="50" relative="1" as="geometry">
            <mxPoint x="127.89999999999999" y="8" as="sourcePoint" />
            <mxPoint x="127.96" y="-2" as="targetPoint" />
          </mxGeometry>
        </mxCell>
        <mxCell id="y_eT4wmRkjMdvx0cKuVC-25" value="$$pc_L$$" style="text;html=1;align=center;verticalAlign=middle;whiteSpace=wrap;rounded=0;" parent="1" vertex="1">
          <mxGeometry x="86" width="20" height="13" as="geometry" />
        </mxCell>
        <mxCell id="y_eT4wmRkjMdvx0cKuVC-26" value="$$pc_R$$" style="text;html=1;align=center;verticalAlign=middle;whiteSpace=wrap;rounded=0;" parent="1" vertex="1">
          <mxGeometry x="155" width="20" height="13" as="geometry" />
        </mxCell>
        <mxCell id="yURfG57xcYRF41rsmX7A-2" value="" style="rounded=0;whiteSpace=wrap;html=1;" vertex="1" parent="1">
          <mxGeometry x="15" y="40" width="80" height="50" as="geometry" />
        </mxCell>
        <mxCell id="yURfG57xcYRF41rsmX7A-4" value="" style="endArrow=classic;html=1;rounded=0;entryX=0.25;entryY=1;entryDx=0;entryDy=0;" edge="1" parent="1">
          <mxGeometry width="50" height="50" relative="1" as="geometry">
            <mxPoint x="25" y="110" as="sourcePoint" />
            <mxPoint x="25" y="90" as="targetPoint" />
          </mxGeometry>
        </mxCell>
        <mxCell id="yURfG57xcYRF41rsmX7A-5" value="" style="rounded=0;whiteSpace=wrap;html=1;" vertex="1" parent="1">
          <mxGeometry x="166" y="40" width="80" height="50" as="geometry" />
        </mxCell>
        <mxCell id="yURfG57xcYRF41rsmX7A-7" value="mem_rdata" style="text;html=1;align=center;verticalAlign=middle;whiteSpace=wrap;rounded=0;" vertex="1" parent="1">
          <mxGeometry x="15" y="121" width="60" height="20" as="geometry" />
        </mxCell>
        <mxCell id="yURfG57xcYRF41rsmX7A-10" value="$$\infty$$" style="rounded=0;whiteSpace=wrap;html=1;" vertex="1" parent="1">
          <mxGeometry x="250" y="81" width="16" height="14" as="geometry" />
        </mxCell>
        <mxCell id="yURfG57xcYRF41rsmX7A-12" value="" style="endArrow=classic;html=1;rounded=0;entryX=0;entryY=0.5;entryDx=0;entryDy=0;" edge="1" parent="1" target="yURfG57xcYRF41rsmX7A-57">
          <mxGeometry width="50" height="50" relative="1" as="geometry">
            <mxPoint x="25" y="107" as="sourcePoint" />
            <mxPoint x="166" y="110.5" as="targetPoint" />
          </mxGeometry>
        </mxCell>
        <mxCell id="yURfG57xcYRF41rsmX7A-13" value="" style="endArrow=classic;html=1;rounded=0;exitX=0.5;exitY=0;exitDx=0;exitDy=0;" edge="1" parent="1">
          <mxGeometry width="50" height="50" relative="1" as="geometry">
            <mxPoint x="175.5" y="101" as="sourcePoint" />
            <mxPoint x="175" y="90" as="targetPoint" />
            <Array as="points" />
          </mxGeometry>
        </mxCell>
        <mxCell id="yURfG57xcYRF41rsmX7A-15" value="" style="endArrow=classic;html=1;rounded=0;entryX=0.625;entryY=1;entryDx=0;entryDy=0;entryPerimeter=0;" edge="1" parent="1">
          <mxGeometry width="50" height="50" relative="1" as="geometry">
            <mxPoint x="55" y="124" as="sourcePoint" />
            <mxPoint x="55" y="90" as="targetPoint" />
          </mxGeometry>
        </mxCell>
        <mxCell id="yURfG57xcYRF41rsmX7A-17" value="interrupt" style="text;html=1;align=center;verticalAlign=middle;whiteSpace=wrap;rounded=0;" vertex="1" parent="1">
          <mxGeometry x="-10" y="108" width="54" height="15" as="geometry" />
        </mxCell>
        <mxCell id="yURfG57xcYRF41rsmX7A-18" value="" style="endArrow=classic;html=1;rounded=0;entryX=0;entryY=0.5;entryDx=0;entryDy=0;" edge="1" parent="1" target="yURfG57xcYRF41rsmX7A-58">
          <mxGeometry width="50" height="50" relative="1" as="geometry">
            <mxPoint x="55" y="118" as="sourcePoint" />
            <mxPoint x="196.49999999999977" y="121.5" as="targetPoint" />
          </mxGeometry>
        </mxCell>
        <mxCell id="yURfG57xcYRF41rsmX7A-21" value="" style="endArrow=classic;html=1;rounded=0;entryX=0.25;entryY=1;entryDx=0;entryDy=0;" edge="1" parent="1">
          <mxGeometry width="50" height="50" relative="1" as="geometry">
            <mxPoint x="85" y="138" as="sourcePoint" />
            <mxPoint x="85" y="90" as="targetPoint" />
          </mxGeometry>
        </mxCell>
        <mxCell id="yURfG57xcYRF41rsmX7A-22" value="" style="endArrow=classic;html=1;rounded=0;entryX=0;entryY=0.5;entryDx=0;entryDy=0;" edge="1" parent="1" target="yURfG57xcYRF41rsmX7A-59">
          <mxGeometry width="50" height="50" relative="1" as="geometry">
            <mxPoint x="85" y="131" as="sourcePoint" />
            <mxPoint x="227.00000000000114" y="148.49999999999994" as="targetPoint" />
          </mxGeometry>
        </mxCell>
        <mxCell id="yURfG57xcYRF41rsmX7A-24" value="" style="endArrow=classic;html=1;rounded=0;exitX=0.5;exitY=0;exitDx=0;exitDy=0;entryX=0.5;entryY=1;entryDx=0;entryDy=0;" edge="1" parent="1" target="yURfG57xcYRF41rsmX7A-5">
          <mxGeometry width="50" height="50" relative="1" as="geometry">
            <mxPoint x="205.99999999999994" y="112" as="sourcePoint" />
            <mxPoint x="186" y="90" as="targetPoint" />
            <Array as="points" />
          </mxGeometry>
        </mxCell>
        <mxCell id="yURfG57xcYRF41rsmX7A-25" value="" style="endArrow=classic;html=1;rounded=0;entryX=0.876;entryY=1.013;entryDx=0;entryDy=0;entryPerimeter=0;exitX=0.5;exitY=0;exitDx=0;exitDy=0;" edge="1" parent="1" source="yURfG57xcYRF41rsmX7A-59" target="yURfG57xcYRF41rsmX7A-5">
          <mxGeometry width="50" height="50" relative="1" as="geometry">
            <mxPoint x="236" y="150" as="sourcePoint" />
            <mxPoint x="216" y="90" as="targetPoint" />
            <Array as="points" />
          </mxGeometry>
        </mxCell>
        <mxCell id="yURfG57xcYRF41rsmX7A-29" value="mem_req_t0" style="text;html=1;align=right;verticalAlign=middle;whiteSpace=wrap;rounded=0;" vertex="1" parent="1">
          <mxGeometry x="15" y="55" width="80" height="20" as="geometry" />
        </mxCell>
        <mxCell id="yURfG57xcYRF41rsmX7A-30" value="mem_addr_t0" style="text;html=1;align=right;verticalAlign=middle;whiteSpace=wrap;rounded=0;" vertex="1" parent="1">
          <mxGeometry x="15" y="40" width="80" height="20" as="geometry" />
        </mxCell>
        <mxCell id="yURfG57xcYRF41rsmX7A-31" value="mem_rdata_t0" style="text;html=1;align=right;verticalAlign=middle;whiteSpace=wrap;rounded=0;" vertex="1" parent="1">
          <mxGeometry x="15" y="70" width="80" height="20" as="geometry" />
        </mxCell>
        <mxCell id="yURfG57xcYRF41rsmX7A-32" value="mem_req_t0" style="text;html=1;align=right;verticalAlign=middle;whiteSpace=wrap;rounded=0;" vertex="1" parent="1">
          <mxGeometry x="166" y="55" width="80" height="20" as="geometry" />
        </mxCell>
        <mxCell id="yURfG57xcYRF41rsmX7A-33" value="mem_addr_t0" style="text;html=1;align=right;verticalAlign=middle;whiteSpace=wrap;rounded=0;" vertex="1" parent="1">
          <mxGeometry x="166" y="40" width="80" height="20" as="geometry" />
        </mxCell>
        <mxCell id="yURfG57xcYRF41rsmX7A-34" value="mem_rdata_t0" style="text;html=1;align=right;verticalAlign=middle;whiteSpace=wrap;rounded=0;" vertex="1" parent="1">
          <mxGeometry x="166" y="70" width="80" height="20" as="geometry" />
        </mxCell>
        <mxCell id="yURfG57xcYRF41rsmX7A-40" value="&lt;font style=&quot;font-size: 14px;&quot;&gt;+&lt;/font&gt;" style="ellipse;whiteSpace=wrap;html=1;aspect=fixed;" vertex="1" parent="1">
          <mxGeometry x="106" y="74" width="12" height="12" as="geometry" />
        </mxCell>
        <mxCell id="yURfG57xcYRF41rsmX7A-41" value="&lt;font style=&quot;font-size: 14px;&quot;&gt;+&lt;/font&gt;" style="ellipse;whiteSpace=wrap;html=1;aspect=fixed;" vertex="1" parent="1">
          <mxGeometry x="124" y="59" width="12" height="12" as="geometry" />
        </mxCell>
        <mxCell id="yURfG57xcYRF41rsmX7A-42" value="&lt;font style=&quot;font-size: 14px;&quot;&gt;+&lt;/font&gt;" style="ellipse;whiteSpace=wrap;html=1;aspect=fixed;" vertex="1" parent="1">
          <mxGeometry x="143" y="44" width="12" height="12" as="geometry" />
        </mxCell>
        <mxCell id="yURfG57xcYRF41rsmX7A-43" value="" style="endArrow=classic;html=1;rounded=0;exitX=1;exitY=0.5;exitDx=0;exitDy=0;entryX=0;entryY=0.5;entryDx=0;entryDy=0;" edge="1" parent="1" source="yURfG57xcYRF41rsmX7A-31" target="yURfG57xcYRF41rsmX7A-40">
          <mxGeometry width="50" height="50" relative="1" as="geometry">
            <mxPoint x="115" y="90" as="sourcePoint" />
            <mxPoint x="104" y="80" as="targetPoint" />
          </mxGeometry>
        </mxCell>
        <mxCell id="yURfG57xcYRF41rsmX7A-44" value="" style="endArrow=classic;html=1;rounded=0;entryX=1;entryY=0.5;entryDx=0;entryDy=0;exitX=0;exitY=0.5;exitDx=0;exitDy=0;" edge="1" parent="1" source="yURfG57xcYRF41rsmX7A-32" target="yURfG57xcYRF41rsmX7A-41">
          <mxGeometry width="50" height="50" relative="1" as="geometry">
            <mxPoint x="120" y="90" as="sourcePoint" />
            <mxPoint x="170" y="40" as="targetPoint" />
          </mxGeometry>
        </mxCell>
        <mxCell id="yURfG57xcYRF41rsmX7A-45" value="" style="endArrow=classic;html=1;rounded=0;entryX=1;entryY=0.5;entryDx=0;entryDy=0;exitX=0;exitY=0.5;exitDx=0;exitDy=0;" edge="1" parent="1" source="yURfG57xcYRF41rsmX7A-33" target="yURfG57xcYRF41rsmX7A-42">
          <mxGeometry width="50" height="50" relative="1" as="geometry">
            <mxPoint x="100" y="90" as="sourcePoint" />
            <mxPoint x="150" y="40" as="targetPoint" />
          </mxGeometry>
        </mxCell>
        <mxCell id="yURfG57xcYRF41rsmX7A-46" value="" style="endArrow=classic;html=1;rounded=0;entryX=1;entryY=0.5;entryDx=0;entryDy=0;exitX=0;exitY=0.5;exitDx=0;exitDy=0;" edge="1" parent="1" source="yURfG57xcYRF41rsmX7A-34" target="yURfG57xcYRF41rsmX7A-40">
          <mxGeometry width="50" height="50" relative="1" as="geometry">
            <mxPoint x="100" y="90" as="sourcePoint" />
            <mxPoint x="150" y="40" as="targetPoint" />
          </mxGeometry>
        </mxCell>
        <mxCell id="yURfG57xcYRF41rsmX7A-47" value="" style="endArrow=classic;html=1;rounded=0;exitX=1;exitY=0.5;exitDx=0;exitDy=0;entryX=0;entryY=0.5;entryDx=0;entryDy=0;" edge="1" parent="1" source="yURfG57xcYRF41rsmX7A-30" target="yURfG57xcYRF41rsmX7A-42">
          <mxGeometry width="50" height="50" relative="1" as="geometry">
            <mxPoint x="100" y="90" as="sourcePoint" />
            <mxPoint x="150" y="40" as="targetPoint" />
          </mxGeometry>
        </mxCell>
        <mxCell id="yURfG57xcYRF41rsmX7A-51" value="" style="endArrow=classic;html=1;rounded=0;entryX=0;entryY=0.5;entryDx=0;entryDy=0;exitX=1;exitY=0.5;exitDx=0;exitDy=0;" edge="1" parent="1" source="yURfG57xcYRF41rsmX7A-29" target="yURfG57xcYRF41rsmX7A-41">
          <mxGeometry width="50" height="50" relative="1" as="geometry">
            <mxPoint x="140" y="90" as="sourcePoint" />
            <mxPoint x="190" y="40" as="targetPoint" />
          </mxGeometry>
        </mxCell>
        <mxCell id="yURfG57xcYRF41rsmX7A-52" value="" style="shape=xor;whiteSpace=wrap;html=1;rotation=90;" vertex="1" parent="1">
          <mxGeometry x="280" y="37" width="20" height="20" as="geometry" />
        </mxCell>
        <mxCell id="yURfG57xcYRF41rsmX7A-54" value="" style="endArrow=classic;html=1;rounded=0;exitX=0.5;exitY=0;exitDx=0;exitDy=0;entryX=0.5;entryY=0;entryDx=0;entryDy=0;" edge="1" parent="1" source="yURfG57xcYRF41rsmX7A-42" target="yURfG57xcYRF41rsmX7A-10">
          <mxGeometry width="50" height="50" relative="1" as="geometry">
            <mxPoint x="150" y="100" as="sourcePoint" />
            <mxPoint x="200" y="50" as="targetPoint" />
            <Array as="points">
              <mxPoint x="149" y="35" />
              <mxPoint x="258" y="35" />
            </Array>
          </mxGeometry>
        </mxCell>
        <mxCell id="yURfG57xcYRF41rsmX7A-55" value="" style="endArrow=classic;html=1;rounded=0;entryX=0.175;entryY=0.25;entryDx=0;entryDy=0;entryPerimeter=0;exitX=0.5;exitY=0;exitDx=0;exitDy=0;" edge="1" parent="1" source="yURfG57xcYRF41rsmX7A-40" target="yURfG57xcYRF41rsmX7A-52">
          <mxGeometry width="50" height="50" relative="1" as="geometry">
            <mxPoint x="160" y="100" as="sourcePoint" />
            <mxPoint x="210" y="50" as="targetPoint" />
            <Array as="points">
              <mxPoint x="112" y="25" />
              <mxPoint x="295" y="25" />
            </Array>
          </mxGeometry>
        </mxCell>
        <mxCell id="yURfG57xcYRF41rsmX7A-56" value="" style="endArrow=classic;html=1;rounded=0;entryX=0.175;entryY=0.75;entryDx=0;entryDy=0;entryPerimeter=0;exitX=0.5;exitY=0;exitDx=0;exitDy=0;" edge="1" parent="1" source="yURfG57xcYRF41rsmX7A-41" target="yURfG57xcYRF41rsmX7A-52">
          <mxGeometry width="50" height="50" relative="1" as="geometry">
            <mxPoint x="160" y="100" as="sourcePoint" />
            <mxPoint x="210" y="50" as="targetPoint" />
            <Array as="points">
              <mxPoint x="130" y="30" />
              <mxPoint x="285" y="30" />
            </Array>
          </mxGeometry>
        </mxCell>
        <mxCell id="yURfG57xcYRF41rsmX7A-57" value="&lt;font style=&quot;font-size: 14px;&quot;&gt;+&lt;/font&gt;" style="ellipse;whiteSpace=wrap;html=1;aspect=fixed;" vertex="1" parent="1">
          <mxGeometry x="170" y="101" width="12" height="12" as="geometry" />
        </mxCell>
        <mxCell id="yURfG57xcYRF41rsmX7A-58" value="&lt;font style=&quot;font-size: 14px;&quot;&gt;+&lt;/font&gt;" style="ellipse;whiteSpace=wrap;html=1;aspect=fixed;" vertex="1" parent="1">
          <mxGeometry x="200" y="111" width="12" height="12" as="geometry" />
        </mxCell>
        <mxCell id="yURfG57xcYRF41rsmX7A-59" value="&lt;font style=&quot;font-size: 14px;&quot;&gt;+&lt;/font&gt;" style="ellipse;whiteSpace=wrap;html=1;aspect=fixed;" vertex="1" parent="1">
          <mxGeometry x="230" y="125" width="12" height="12" as="geometry" />
        </mxCell>
        <mxCell id="yURfG57xcYRF41rsmX7A-62" value="" style="shape=xor;whiteSpace=wrap;html=1;rotation=90;" vertex="1" parent="1">
          <mxGeometry x="270" y="70" width="20" height="20" as="geometry" />
        </mxCell>
        <mxCell id="yURfG57xcYRF41rsmX7A-63" value="" style="endArrow=classic;html=1;rounded=0;entryX=0.175;entryY=0.75;entryDx=0;entryDy=0;entryPerimeter=0;" edge="1" parent="1" target="yURfG57xcYRF41rsmX7A-62">
          <mxGeometry width="50" height="50" relative="1" as="geometry">
            <mxPoint x="258" y="60" as="sourcePoint" />
            <mxPoint x="260" y="60" as="targetPoint" />
            <Array as="points">
              <mxPoint x="275" y="60" />
            </Array>
          </mxGeometry>
        </mxCell>
        <mxCell id="yURfG57xcYRF41rsmX7A-64" value="" style="endArrow=classic;html=1;rounded=0;" edge="1" parent="1">
          <mxGeometry width="50" height="50" relative="1" as="geometry">
            <mxPoint x="260" y="60" as="sourcePoint" />
            <mxPoint x="260" y="60" as="targetPoint" />
          </mxGeometry>
        </mxCell>
        <mxCell id="yURfG57xcYRF41rsmX7A-65" value="" style="endArrow=classic;html=1;rounded=0;entryX=0.175;entryY=0.25;entryDx=0;entryDy=0;entryPerimeter=0;exitX=1;exitY=0.5;exitDx=0;exitDy=0;exitPerimeter=0;" edge="1" parent="1" source="yURfG57xcYRF41rsmX7A-52" target="yURfG57xcYRF41rsmX7A-62">
          <mxGeometry width="50" height="50" relative="1" as="geometry">
            <mxPoint x="180" y="110" as="sourcePoint" />
            <mxPoint x="230" y="60" as="targetPoint" />
            <Array as="points">
              <mxPoint x="290" y="60" />
              <mxPoint x="285" y="60" />
            </Array>
          </mxGeometry>
        </mxCell>
        <mxCell id="yURfG57xcYRF41rsmX7A-66" value="$$\infty$$" style="rounded=0;whiteSpace=wrap;html=1;" vertex="1" parent="1">
          <mxGeometry x="272" y="110" width="16" height="14" as="geometry" />
        </mxCell>
        <mxCell id="yURfG57xcYRF41rsmX7A-67" value="$$\infty$$" style="rounded=0;whiteSpace=wrap;html=1;" vertex="1" parent="1">
          <mxGeometry x="254" y="124" width="16" height="14" as="geometry" />
        </mxCell>
        <mxCell id="yURfG57xcYRF41rsmX7A-68" value="" style="endArrow=classic;html=1;rounded=0;exitX=0.5;exitY=1;exitDx=0;exitDy=0;entryX=1;entryY=0.5;entryDx=0;entryDy=0;" edge="1" parent="1" source="yURfG57xcYRF41rsmX7A-10" target="yURfG57xcYRF41rsmX7A-57">
          <mxGeometry width="50" height="50" relative="1" as="geometry">
            <mxPoint x="230" y="130" as="sourcePoint" />
            <mxPoint x="280" y="80" as="targetPoint" />
            <Array as="points">
              <mxPoint x="258" y="106" />
            </Array>
          </mxGeometry>
        </mxCell>
        <mxCell id="yURfG57xcYRF41rsmX7A-69" value="" style="endArrow=classic;html=1;rounded=0;exitX=1;exitY=0.5;exitDx=0;exitDy=0;exitPerimeter=0;entryX=0.5;entryY=0;entryDx=0;entryDy=0;" edge="1" parent="1" source="yURfG57xcYRF41rsmX7A-62" target="yURfG57xcYRF41rsmX7A-66">
          <mxGeometry width="50" height="50" relative="1" as="geometry">
            <mxPoint x="230" y="130" as="sourcePoint" />
            <mxPoint x="280" y="80" as="targetPoint" />
          </mxGeometry>
        </mxCell>
        <mxCell id="yURfG57xcYRF41rsmX7A-70" value="" style="endArrow=classic;html=1;rounded=0;entryX=1;entryY=0.5;entryDx=0;entryDy=0;" edge="1" parent="1" target="yURfG57xcYRF41rsmX7A-67">
          <mxGeometry width="50" height="50" relative="1" as="geometry">
            <mxPoint x="290" y="60" as="sourcePoint" />
            <mxPoint x="280" y="80" as="targetPoint" />
            <Array as="points">
              <mxPoint x="298" y="60" />
              <mxPoint x="298" y="131" />
            </Array>
          </mxGeometry>
        </mxCell>
        <mxCell id="yURfG57xcYRF41rsmX7A-72" value="" style="endArrow=classic;html=1;rounded=0;exitX=0;exitY=0.5;exitDx=0;exitDy=0;entryX=1;entryY=0.5;entryDx=0;entryDy=0;" edge="1" parent="1" source="yURfG57xcYRF41rsmX7A-67" target="yURfG57xcYRF41rsmX7A-59">
          <mxGeometry width="50" height="50" relative="1" as="geometry">
            <mxPoint x="230" y="130" as="sourcePoint" />
            <mxPoint x="280" y="80" as="targetPoint" />
          </mxGeometry>
        </mxCell>
        <mxCell id="yURfG57xcYRF41rsmX7A-73" value="" style="endArrow=classic;html=1;rounded=0;exitX=0;exitY=0.5;exitDx=0;exitDy=0;entryX=1;entryY=0.5;entryDx=0;entryDy=0;" edge="1" parent="1" source="yURfG57xcYRF41rsmX7A-66" target="yURfG57xcYRF41rsmX7A-58">
          <mxGeometry width="50" height="50" relative="1" as="geometry">
            <mxPoint x="224" y="117.88" as="sourcePoint" />
            <mxPoint x="212" y="117.88" as="targetPoint" />
          </mxGeometry>
        </mxCell>
        <mxCell id="yURfG57xcYRF41rsmX7A-75" value="mem_gnt" style="text;html=1;align=center;verticalAlign=middle;whiteSpace=wrap;rounded=0;" vertex="1" parent="1">
          <mxGeometry x="84" y="129" width="60" height="20" as="geometry" />
        </mxCell>
      </root>
    </mxGraphModel>
  </diagram>
</mxfile>
